<?xml version="1.0" standalone="no"?><!DOCTYPE svg PUBLIC "-//W3C//DTD SVG 1.1//EN" "http://www.w3.org/Graphics/SVG/1.1/DTD/svg11.dtd"><svg t="1768231320429" class="icon" viewBox="0 0 1024 1024" version="1.1" xmlns="http://www.w3.org/2000/svg" p-id="15957" xmlns:xlink="http://www.w3.org/1999/xlink" width="200" height="200"><path d="M937.165975 521.135089v-6.960068-6.960068l-91.350893-92.2209c0-5.655055-3.480034-11.31011-5.655055-16.965166a358.878505 358.878505 0 0 0-16.965165-40.020391V245.342396a43.500425 43.500425 0 0 0-43.500425-43.500425H667.028336a341.478335 341.478335 0 0 0-39.585386-16.965166l-16.530162-5.655055L519.561896 87.00085h-13.920136l-91.350892 90.045879-16.530161 5.655055a351.048428 351.048428 0 0 0-39.585387 16.965166H246.814233a43.500425 43.500425 0 0 0-43.500425 43.500425v114.841121a354.963466 354.963466 0 0 0-16.965166 40.020391c0 5.655055-3.915038 11.31011-5.655055 16.965166L88.037682 508.95497v13.920136l91.350892 92.220901c0 5.655055 3.480034 11.31011 5.655056 16.965165a351.483432 351.483432 0 0 0 16.965165 40.020391V783.007647a43.500425 43.500425 0 0 0 43.500425 43.500424H358.17532a348.003398 348.003398 0 0 0 39.585387 16.965166l16.530161 5.655055 91.350892 94.830926h13.920136l91.350892-92.2209 16.530162-5.655055a341.478335 341.478335 0 0 0 39.585386-16.965166H777.95442a43.500425 43.500425 0 0 0 43.500425-43.500425v-115.276126a344.958369 344.958369 0 0 0 16.965165-40.020391c0-5.655055 3.915038-10.875106 5.655055-16.965165z m61.770603-62.205607a78.300765 78.300765 0 0 1 0 110.491079l-87.00085 87.000849q-6.525064 18.705183-14.35514 36.105353v125.281223a87.00085 87.00085 0 0 1-87.00085 87.00085H686.603528c-11.745115 5.220051-23.490229 10.440102-35.670349 14.35514l-78.300764 79.170773a87.00085 87.00085 0 0 1-123.106203 0l-78.300764-79.170773c-12.180119-4.350042-24.360238-9.135089-35.670349-14.35514H213.318906a87.00085 87.00085 0 0 1-87.00085-87.00085v-125.716227q-7.830076-17.835174-14.35514-36.105353l-87.00085-87.00085a78.300765 78.300765 0 0 1 0-110.491079l87.00085-87.000849c4.350042-12.615123 9.135089-24.360238 14.35514-36.105353V210.97706a87.00085 87.00085 0 0 1 87.00085-87.000849H338.600129q17.40017-8.265081 35.670348-14.35514l87.00085-87.00085a76.995752 76.995752 0 0 1 108.751062 0l87.00085 87.00085q18.270178 6.525064 35.670348 14.35514h123.541207a87.00085 87.00085 0 0 1 87.000849 87.000849V334.953271q7.830076 17.835174 14.35514 36.105353z m-394.983858-91.350892a35.365845 35.365845 0 1 1 50.025489 50.025488L421.250936 650.331351a35.365845 35.365845 0 0 1-50.025488-50.025489z m-162.256584 0a70.905692 70.905692 0 1 1-35.235344-61.335599 70.905692 70.905692 0 0 1 35.670348 61.335599z m211.847069 211.847068a70.905692 70.905692 0 1 1-61.335599 35.235345 70.905692 70.905692 0 0 1 61.770603-35.235345z" fill="#515151" p-id="15958"></path><path d="M937.165975 521.135089v-6.960068-6.960068l-91.350893-92.2209c0-5.655055-3.480034-11.31011-5.655055-16.965166a358.878505 358.878505 0 0 0-16.965165-40.020391V245.342396a43.500425 43.500425 0 0 0-43.500425-43.500425H667.028336a341.478335 341.478335 0 0 0-39.585386-16.965166l-16.530162-5.655055L519.561896 87.00085h-13.920136l-91.350892 90.045879-16.530161 5.655055a351.048428 351.048428 0 0 0-39.585387 16.965166H246.814233a43.500425 43.500425 0 0 0-43.500425 43.500425v114.841121a354.963466 354.963466 0 0 0-16.965166 40.020391c0 5.655055-3.915038 11.31011-5.655055 16.965166L88.037682 508.95497v13.920136l91.350892 92.220901c0 5.655055 3.480034 11.31011 5.655056 16.965165a351.483432 351.483432 0 0 0 16.965165 40.020391V783.007647a43.500425 43.500425 0 0 0 43.500425 43.500424H358.17532a348.003398 348.003398 0 0 0 39.585387 16.965166l16.530161 5.655055 91.350892 94.830926h13.920136l91.350892-92.2209 16.530162-5.655055a341.478335 341.478335 0 0 0 39.585386-16.965166H777.95442a43.500425 43.500425 0 0 0 43.500425-43.500425v-115.276126a344.958369 344.958369 0 0 0 16.965165-40.020391c0-5.655055 3.915038-10.875106 5.655055-16.965165z m61.770603-62.205607a78.300765 78.300765 0 0 1 0 110.491079l-87.00085 87.000849q-6.525064 18.705183-14.35514 36.105353v125.281223a87.00085 87.00085 0 0 1-87.00085 87.00085H686.603528c-11.745115 5.220051-23.490229 10.440102-35.670349 14.35514l-78.300764 79.170773a87.00085 87.00085 0 0 1-123.106203 0l-78.300764-79.170773c-12.180119-4.350042-24.360238-9.135089-35.670349-14.35514H213.318906a87.00085 87.00085 0 0 1-87.00085-87.00085v-125.716227q-7.830076-17.835174-14.35514-36.105353l-87.00085-87.00085a78.300765 78.300765 0 0 1 0-110.491079l87.00085-87.000849c4.350042-12.615123 9.135089-24.360238 14.35514-36.105353V210.97706a87.00085 87.00085 0 0 1 87.00085-87.000849H338.600129q17.40017-8.265081 35.670348-14.35514l87.00085-87.00085a76.995752 76.995752 0 0 1 108.751062 0l87.00085 87.00085q18.270178 6.525064 35.670348 14.35514h123.541207a87.00085 87.00085 0 0 1 87.000849 87.000849V334.953271q7.830076 17.835174 14.35514 36.105353z m-394.983858-91.350892a35.365845 35.365845 0 1 1 50.025489 50.025488L421.250936 650.331351a35.365845 35.365845 0 0 1-50.025488-50.025489z m-162.256584 0a70.905692 70.905692 0 1 1-35.235344-61.335599 70.905692 70.905692 0 0 1 35.670348 61.335599z m211.847069 211.847068a70.905692 70.905692 0 1 1-61.335599 35.235345 70.905692 70.905692 0 0 1 61.770603-35.235345z" p-id="15959" fill="#515151"></path></svg>