<?xml version="1.0" standalone="no"?><!DOCTYPE svg PUBLIC "-//W3C//DTD SVG 1.1//EN" "http://www.w3.org/Graphics/SVG/1.1/DTD/svg11.dtd"><svg t="1766930831218" class="icon" viewBox="0 0 1024 1024" version="1.1" xmlns="http://www.w3.org/2000/svg" p-id="1612" xmlns:xlink="http://www.w3.org/1999/xlink" width="200" height="200"><path d="M662.42602636 398.61567705q-24.70075927-23.44461856-44.38700331-42.20634287l-34.11679307-31.52411718c-8.96382334-8.33072783-14.32000898-13.40553779-16.13890107-15.23448018q-25.12282237-23.44461856-56.48615508-22.01764131c-20.9122374 0.91447031-38.83988408 8.20008896-53.81308565 22.01764131-2.37159404 2.34144667-8.22018779 7.94886153-17.47543623 16.55091562s-20.77155 19.40486836-34.53885615 31.91603379-28.99173779 26.56989756-45.7235376 41.81442627-33.49374698 30.74028575-50.2456456 46.36668164q-60.06364453 54.71750742-133.65341632 122.18736006v348.56409111q0 21.50513613 15.23447931 33.22242071t41.2516749 11.71728456h176.76418096c-0.13063886-1.94953096-0.22108096-3.77847246-0.22108096-5.72800341V802.94238477a87.68870068 87.68870068 0 0 1 87.52791445-87.78919131h32.41849043a87.66860185 87.66860185 0 0 1 87.52791358 87.78919131v153.3195624c0 2.00982568-0.07034414 3.77847246-0.19093272 5.72800341h176.70388535c16.76194717-0.65319346 30.06699434-6.02947705 39.91514063-16.28963789s14.8023668-21.87695391 14.8023668-35.03126425V570.28494834q-74.36355557-69.15810586-134.51764131-124.92072334c-17.3548459-15.63644443-34.16703926-31.15230029-50.64761075-46.76864678z m299.92630606 80.88543985c-0.58284932-14.33005839-7.17507773-27.60495732-19.69629258-39.60361758L920.19623574 417.53818672c-11.3454668-11.46605625-25.39414951-25.00223291-42.12594844-40.89995508s-35.11165693-33.77512266-55.12952285-53.5618582-40.50803935-39.59356817-61.44037471-59.79231826-41.55314854-39.98548477-61.86243867-59.65162998-38.70924521-37.66413604-55.14961992-53.5618582-30.35841855-29.30325996-41.70388623-40.50803937-18.85216641-18.08843203-22.43970528-21.10317099Q552.55889815 61.49754336 513.09596797 62.01004942t-73.49932969 33.61433642c-3.01473896 3.01473896-13.63666816 13.06386739-31.86578848 30.21773115s-40.04577949 37.51339922-65.44997753 61.48057148-52.92876269 49.76328692-82.51339922 77.37829453-57.28003594 53.26038369-82.95556026 77.24765479-47.80370742 44.67842754-66.32425195 62.00312607-29.61478301 27.87628448-33.16212597 31.52411807Q62.94523115 448.96181328 62.0006126 471.80348369q-0.88432295 23.11299668 17.08351962 39.0911124c10.76261748 9.63711474 23.60540391 14.19941953 38.57860635 13.54622608s26.87137119-4.56230479 35.87539131-11.72733399q4.45176387-3.5171956 26.44930723-23.83653427 21.95734747-20.09825771 52.43635547-48.97945459t66.32425195-62.00312695q35.92563662-33.21237129 68.18334082-63.86221495t56.93836553-53.3608752c16.44037559-15.37516758 27.65520352-25.66547578 33.62438584-31.00156347 17.93769521-16.28963789 36.17686494-24.62036661 54.72755683-25.27356006s37.37271094 7.81822266 56.48615508 25.27356006c4.17038818 3.5171956 14.06878066 12.89303261 29.61478301 27.87628359S632.36908145 290.11522959 653.89431552 310.55515859s44.38700332 42.06565459 68.61545333 65.13845449 46.929433 44.66837901 68.15319345 64.73648936 39.45288076 37.25212148 54.68736007 51.71281875 24.35908886 22.66078623 27.35372987 25.12282236q13.45578398 11.72733398 35.87539044 12.5011169c14.93300567 0.65319346 28.0772666-4.16033964 39.45288076-14.3300584q15.21438135-14.4707458 14.32000898-35.95578398z m0 0" fill="#666666" p-id="1613"></path></svg>